<?xml version="1.0" encoding="utf-8"?>
<!-- Generator: Adobe Illustrator 21.0.1, SVG Export Plug-In . SVG Version: 6.00 Build 0)  -->
<svg version="1.1" id="Слой_1" xmlns="http://www.w3.org/2000/svg" xmlns:xlink="http://www.w3.org/1999/xlink" x="0px" y="0px"
	 viewBox="0 0 1248 233" style="enable-background:new 0 0 1248 233;" xml:space="preserve">
<style type="text/css">
	.st0{clip-path:url(#SVGID_2_);}
	.st1{fill:#FFFFFF;stroke:#1E1E1E;stroke-width:3;stroke-miterlimit:10;}
	.st2{fill:#C3ECF6;stroke:#1E1E1E;stroke-width:3;stroke-miterlimit:10;}
	.st3{fill:#CCF6C5;stroke:#1E1E1E;stroke-width:3;stroke-miterlimit:10;}
	.st4{fill:#1E1E1E;}
	.st5{fill:#CEE6C1;stroke:#202124;stroke-width:3;}
	.st6{fill:#FFE7A5;stroke:#202124;stroke-width:3;}
	.st7{fill:#F8D8D8;stroke:#202124;stroke-width:3;}
	.st8{fill:none;stroke:#1E1E1E;stroke-width:3;stroke-miterlimit:10;}
	.st9{fill:#F8D8D8;stroke:#1E1E1E;stroke-width:3;stroke-linejoin:round;}
</style>
<g>
	<g>
		<defs>
			<rect id="SVGID_1_" x="620" y="15" width="628" height="216"/>
		</defs>
		<clipPath id="SVGID_2_">
			<use xlink:href="#SVGID_1_"  style="overflow:visible;"/>
		</clipPath>
		<g class="st0">
			<path class="st1" d="M1107.1,168.8H760.2c-16.8,0-30.4,13.7-30.4,30.5s13.6,30.5,30.4,30.5h346.9c16.8,0,30.4-13.7,30.4-30.5
				S1123.9,168.8,1107.1,168.8z"/>
			<path class="st2" d="M624,147.6h11c3.9,0,7.1,3.2,7.1,7.1v39.5c0,19.7,15.9,35.6,35.5,35.6h22.2c1.6,0,2.8-1.3,2.8-2.8v-40
				c0-1.6-1.3-2.8-2.8-2.8h-15.6c-3.9,0-7.1-3.2-7.1-7.1V68.9c0-3.9,3.2-7.1,7.1-7.1h15.6c1.6,0,2.8-1.3,2.8-2.8V19
				c0-1.6-1.3-2.8-2.8-2.8h-22.2c-19.6,0-35.5,16-35.5,35.6V93c0,3.9-3.2,7.1-7.1,7.1h-11c-1.6,0-2.8,1.3-2.8,2.8v41.8
				C621.1,146.3,622.4,147.6,624,147.6L624,147.6z"/>
			<path class="st3" d="M1244.1,147.6h-11c-3.9,0-7.1,3.2-7.1,7.1v39.5c0,19.7-15.9,35.6-35.5,35.6h-22.2c-1.6,0-2.8-1.3-2.8-2.8
				v-40c0-1.6,1.3-2.8,2.8-2.8h15.6c3.9,0,7.1-3.2,7.1-7.1V68.9c0-3.9-3.2-7.1-7.1-7.1h-15.6c-1.6,0-2.8-1.3-2.8-2.8V19
				c0-1.6,1.3-2.8,2.8-2.8h22.2c19.6,0,35.5,16,35.5,35.6V93c0,3.9,3.2,7.1,7.1,7.1h11c1.6,0,2.8,1.3,2.8,2.8v41.8
				C1246.9,146.3,1245.6,147.6,1244.1,147.6L1244.1,147.6z"/>
			<path class="st4" d="M785.8,66.7c-5.8-3.2-12.8-4.9-20.9-4.9h-25.7v76.3H765c8.1,0,15-1.6,20.9-4.8c5.8-3.2,10.3-7.7,13.5-13.4
				c3.1-5.8,4.7-12.4,4.7-19.9s-1.6-14.2-4.7-19.9C796.1,74.4,791.7,69.9,785.8,66.7z M786.8,112.9c-1.9,3.7-4.7,6.6-8.4,8.6
				c-3.8,2-8.4,3-14,3h-10.7v-49h10.7c5.6,0,10.3,1,14,3c3.8,2,6.6,4.9,8.4,8.5c1.9,3.7,2.8,8,2.8,13S788.6,109.2,786.8,112.9z"/>
			<path class="st4" d="M853.4,85.8c-4-2.5-8.8-3.7-14.6-3.7c-5.4,0-10.2,1.3-14.3,4c-4.2,2.7-7.5,6.2-9.9,10.6s-3.6,9.2-3.6,14.4
				c0,5.5,1.2,10.5,3.7,14.8c2.4,4.3,5.8,7.7,10.1,10.2s9.1,3.7,14.6,3.7c6,0,11.1-1.3,15.2-3.9c4.1-2.6,7.4-6.1,10-10.6l-11.2-5.5
				c-1.3,2.2-3,4-5.3,5.5s-5.1,2.2-8.4,2.2c-2.8,0-5.4-0.7-7.7-2s-4.1-3.2-5.5-5.8c-0.9-1.6-1.4-3.4-1.7-5.5h40.6
				c0.1-0.4,0.1-0.9,0.2-1.8c0.1-0.8,0.1-1.8,0.1-2.9c0-5-1-9.6-3.1-13.8C860.3,91.6,857.3,88.3,853.4,85.8z M825.1,104.3
				c0.3-1,0.7-1.9,1.1-2.8c1.3-2.5,3-4.5,5.3-5.9c2.2-1.4,4.7-2.1,7.4-2.1c2.1,0,3.9,0.3,5.5,1s3,1.5,4.1,2.6s2,2.2,2.7,3.5
				c0.6,1.3,1,2.5,1.1,3.7L825.1,104.3L825.1,104.3z"/>
			<path class="st4" d="M896.2,119.2h-0.8l-13.7-35.4h-15.8l22.9,54.4h13.8l23.1-54.4h-15.6L896.2,119.2z"/>
			<path class="st4" d="M932.6,138.1h14.3v-30.5h30.5V94h-30.5V75.5h33.9V61.8h-48.2V138.1z"/>
			<path class="st4" d="M1027.4,85.8c-4-2.5-8.9-3.7-14.7-3.7c-5.4,0-10.2,1.3-14.3,4c-4.2,2.7-7.5,6.2-9.9,10.6s-3.6,9.2-3.6,14.4
				c0,5.5,1.2,10.5,3.7,14.8c2.4,4.3,5.8,7.7,10.1,10.2s9.1,3.7,14.6,3.7c6,0,11.1-1.3,15.2-3.9c4.1-2.6,7.4-6.1,10-10.6l-11.3-5.5
				c-1.3,2.2-3.1,4-5.3,5.5c-2.3,1.5-5.1,2.2-8.4,2.2c-2.8,0-5.4-0.7-7.7-2s-4.1-3.2-5.5-5.8c-0.9-1.6-1.4-3.4-1.7-5.5h40.6
				c0.1-0.4,0.1-0.9,0.2-1.8c0.1-0.8,0.1-1.8,0.1-2.9c0-5-1-9.6-3.1-13.8C1034.4,91.6,1031.4,88.3,1027.4,85.8z M999.1,104.3
				c0.3-1,0.7-1.9,1.1-2.8c1.3-2.5,3-4.5,5.3-5.9c2.2-1.4,4.7-2.1,7.4-2.1c2.1,0,3.9,0.3,5.5,1s3,1.5,4.1,2.6s2,2.2,2.7,3.5
				c0.6,1.3,1,2.5,1.1,3.7L999.1,104.3L999.1,104.3z"/>
			<path class="st4" d="M1075.3,105.7l-8-1.9c-2-0.5-3.7-1.2-5.1-2.2s-2.1-2.2-2.1-3.5s0.7-2.4,2.1-3.3s3.3-1.4,5.7-1.4
				c2.1,0,4,0.4,5.8,1.3s3.3,2.3,4.4,4.5L1090,94c-1.3-2.7-3-4.9-5.1-6.7c-2.1-1.7-4.6-3-7.5-3.9s-6.1-1.3-9.8-1.3
				c-3.9,0-7.4,0.7-10.7,2c-3.2,1.3-5.8,3.2-7.7,5.6c-1.9,2.4-2.8,5.3-2.8,8.5c0,2.9,0.7,5.5,2.2,7.7c1.4,2.2,3.3,4.1,5.7,5.5
				c2.3,1.5,4.8,2.5,7.4,3l6.4,1.4c1.5,0.3,2.9,0.7,4.3,1.1c1.4,0.5,2.6,1.1,3.6,1.9s1.4,1.9,1.4,3.4c0,2-0.9,3.4-2.8,4.1
				c-1.8,0.7-3.9,1.1-6.2,1.1c-2.8,0-5.2-0.7-7.2-2c-2.1-1.3-3.7-3.3-4.9-5.8l-12.4,5.4c1,2.6,2.5,5,4.6,7.2s4.7,4,8,5.3
				s7.3,2,11.9,2c4.2,0,8.1-0.7,11.6-2.2s6.2-3.5,8.3-6.2c2.1-2.7,3.1-5.8,3.1-9.3c0-4-1.4-7.4-4.1-10.2
				C1084.8,109.1,1080.7,107,1075.3,105.7L1075.3,105.7z"/>
			<path class="st4" d="M1129,125.4c-1,0.3-2.1,0.5-3.2,0.5c-2.4,0-4.1-0.6-5.2-1.9c-1.1-1.2-1.6-3.2-1.6-5.8V95.7h13.3V83.8H1119
				V68.4h-13.9v15.3h-9.5v11.9h9.5v25.1c0,5.7,1.6,10.1,4.8,13.4c3.2,3.2,7.6,4.9,13.2,4.9c1.7,0,3.3-0.2,4.9-0.5s3.2-0.8,4.7-1.3
				v-13.6C1131.3,124.5,1130,125.1,1129,125.4z"/>
		</g>
	</g>
</g>
<g>
	<path d="M812.1,185.9h4.7l9.9,26.4h-4.6l-2.4-6.8h-10.7l-2.4,6.8h-4.6L812.1,185.9z M818.5,201.7l-2.8-7.9l-1-3.1h-0.2l-1,3.1
		l-2.8,7.9H818.5z"/>
	<path d="M831.3,211.5c-1.4-0.9-2.3-2.2-2.9-3.6l3.6-1.6c0.4,1,1.1,1.7,1.9,2.3s1.7,0.8,2.8,0.8c1,0,1.9-0.2,2.5-0.5
		c0.7-0.4,1-0.9,1-1.6c0-0.7-0.3-1.2-0.9-1.6c-0.6-0.4-1.5-0.7-2.7-1l-2.3-0.6c-1.5-0.4-2.7-1-3.7-2c-1-0.9-1.5-2.1-1.5-3.5
		c0-1.1,0.3-2.1,1-2.9c0.7-0.8,1.5-1.5,2.6-1.9c1.1-0.5,2.3-0.7,3.6-0.7c1.7,0,3.3,0.4,4.6,1.1c1.3,0.7,2.3,1.7,2.9,3l-3.5,1.5
		c-0.7-1.5-2-2.2-3.9-2.2c-0.9,0-1.7,0.2-2.3,0.6c-0.6,0.4-0.9,0.8-0.9,1.4c0,0.6,0.2,1,0.7,1.4c0.5,0.4,1.2,0.7,2.1,0.9l2.8,0.7
		c1.8,0.5,3.2,1.2,4.2,2.1s1.4,2.1,1.4,3.5c0,1.2-0.3,2.2-1,3.1c-0.7,0.9-1.6,1.6-2.8,2.1c-1.2,0.5-2.5,0.7-3.9,0.7
		C834.4,212.9,832.6,212.4,831.3,211.5z"/>
	<path d="M853,212.2c-0.7-0.3-1.3-0.6-1.8-1.1c-1.1-1.1-1.6-2.5-1.6-4.3v-9.7h-3.3v-3.6h3.3v-5.3h4.1v5.3h4.6v3.6h-4.6v8.9
		c0,1,0.2,1.7,0.6,2.1c0.4,0.5,1,0.7,1.9,0.7c0.4,0,0.8-0.1,1.1-0.2c0.3-0.1,0.7-0.3,1-0.5v3.9c-0.8,0.4-1.8,0.6-3,0.6
		C854.5,212.6,853.7,212.5,853,212.2z"/>
	<path d="M862.1,193.5h3.9v2.8h0.2c0.4-1,1.1-1.8,2.2-2.4c1-0.6,2.1-0.9,3.3-0.9c0.9,0,1.7,0.1,2.3,0.4v4.2
		c-1.1-0.4-2.1-0.6-2.9-0.6c-0.9,0-1.8,0.2-2.5,0.7c-0.7,0.5-1.3,1.2-1.7,2c-0.4,0.8-0.6,1.7-0.6,2.7v10h-4.1V193.5z"/>
	<path d="M878.6,212.1c-1.1-0.5-1.9-1.3-2.5-2.3c-0.6-1-0.9-2.1-0.9-3.3c0-1.9,0.7-3.5,2.2-4.6c1.5-1.1,3.3-1.7,5.6-1.7
		c1.1,0,2.1,0.1,3,0.3c0.9,0.2,1.6,0.4,2.1,0.7v-1c0-1.2-0.4-2.1-1.3-2.8c-0.9-0.7-2-1.1-3.3-1.1c-1,0-1.9,0.2-2.7,0.6
		c-0.8,0.4-1.5,1-2,1.7l-2.8-2.2c0.8-1.2,1.9-2.1,3.2-2.7c1.3-0.6,2.8-1,4.4-1c2.7,0,4.8,0.7,6.3,2c1.5,1.3,2.2,3.2,2.2,5.7v11.7h-4
		V210h-0.2c-0.5,0.8-1.3,1.5-2.3,2c-1,0.5-2.1,0.8-3.4,0.8C880.9,212.9,879.7,212.6,878.6,212.1z M885.6,208.8
		c0.8-0.5,1.4-1.1,1.8-1.9c0.4-0.8,0.7-1.6,0.7-2.5c-0.6-0.3-1.2-0.6-2-0.8c-0.8-0.2-1.5-0.3-2.3-0.3c-1.5,0-2.6,0.3-3.4,0.9
		c-0.7,0.6-1.1,1.4-1.1,2.3c0,0.9,0.3,1.6,1,2.1c0.7,0.6,1.5,0.8,2.6,0.8C883.9,209.5,884.8,209.3,885.6,208.8z"/>
	<path d="M896.5,185.9h4.1v15.4h0.1l7.7-7.8h5.1v0.2l-7.3,7.3l7.5,11.1v0.2h-4.8l-5.5-8.5l-2.8,2.7v5.8h-4.1V185.9z"/>
	<path d="M916.2,185.9h4.1v7.2l-0.2,2.9h0.2c0.5-0.9,1.3-1.6,2.4-2.2c1.1-0.6,2.2-0.9,3.5-0.9c2.3,0,4,0.7,5.2,2
		c1.2,1.3,1.8,3.2,1.8,5.5v11.9h-4.1v-11.4c0-1.4-0.4-2.5-1.1-3.2c-0.8-0.7-1.7-1.1-2.9-1.1c-0.9,0-1.7,0.3-2.5,0.8
		c-0.7,0.5-1.3,1.2-1.7,2c-0.4,0.8-0.6,1.8-0.6,2.7v10.1h-4.1V185.9z"/>
	<path d="M939.9,212.1c-1.1-0.5-1.9-1.3-2.5-2.3c-0.6-1-0.9-2.1-0.9-3.3c0-1.9,0.7-3.5,2.2-4.6c1.5-1.1,3.3-1.7,5.6-1.7
		c1.1,0,2.1,0.1,3,0.3c0.9,0.2,1.6,0.4,2.1,0.7v-1c0-1.2-0.4-2.1-1.3-2.8c-0.9-0.7-2-1.1-3.3-1.1c-1,0-1.9,0.2-2.7,0.6
		c-0.8,0.4-1.5,1-2,1.7l-2.8-2.2c0.8-1.2,1.9-2.1,3.2-2.7c1.3-0.6,2.8-1,4.4-1c2.7,0,4.8,0.7,6.3,2c1.5,1.3,2.2,3.2,2.2,5.7v11.7h-4
		V210h-0.2c-0.5,0.8-1.3,1.5-2.3,2c-1,0.5-2.1,0.8-3.4,0.8C942.2,212.9,941,212.6,939.9,212.1z M946.9,208.8
		c0.8-0.5,1.4-1.1,1.8-1.9c0.4-0.8,0.7-1.6,0.7-2.5c-0.6-0.3-1.2-0.6-2-0.8c-0.8-0.2-1.5-0.3-2.3-0.3c-1.5,0-2.6,0.3-3.4,0.9
		c-0.7,0.6-1.1,1.4-1.1,2.3c0,0.9,0.3,1.6,1,2.1c0.7,0.6,1.5,0.8,2.6,0.8C945.2,209.5,946.1,209.3,946.9,208.8z"/>
	<path d="M957.8,193.5h3.9v2.5h0.2c0.5-0.9,1.3-1.6,2.4-2.2c1.1-0.6,2.2-0.9,3.4-0.9c2.3,0,4,0.7,5.2,2c1.2,1.3,1.8,3.2,1.8,5.5
		v11.9h-4.1v-11.4c0-1.5-0.4-2.6-1.1-3.2s-1.7-1-3-1c-0.9,0-1.7,0.3-2.4,0.8c-0.7,0.5-1.3,1.2-1.7,2c-0.4,0.8-0.6,1.7-0.6,2.7v10.2
		h-4.1V193.5z"/>
	<path d="M987.4,208.5c0.8-0.8,2.3-2.3,4.7-4.7c2.3-2.3,3.9-3.9,4.6-4.7c1-1.1,1.7-2,2.1-2.7c0.4-0.7,0.6-1.5,0.6-2.5
		c0-1-0.4-1.8-1.1-2.5s-1.7-1.1-3-1.1c-1.2,0-2.1,0.3-2.8,1s-1.2,1.5-1.4,2.3l-3.7-1.5c0.2-0.9,0.7-1.8,1.4-2.6s1.6-1.6,2.7-2.2
		c1.1-0.6,2.4-0.9,3.9-0.9c1.6,0,3,0.3,4.3,1c1.2,0.7,2.2,1.5,2.9,2.7c0.7,1.1,1,2.4,1,3.7c0,1.5-0.4,2.8-1.1,4.2
		c-0.8,1.3-1.7,2.6-2.9,3.7c-0.5,0.5-1.7,1.7-3.7,3.7l-3,3l0.1,0.1h11v3.7h-16.4V208.5z"/>
	<path d="M1012.4,211.1c-1.6-1.2-2.8-2.8-3.6-4.8c-0.8-2-1.3-4.2-1.3-6.7c0-2.5,0.4-4.7,1.3-6.7c0.8-2,2.1-3.6,3.6-4.7
		c1.6-1.2,3.4-1.7,5.5-1.7c2.1,0,3.9,0.6,5.4,1.7c1.6,1.2,2.8,2.7,3.6,4.7c0.8,2,1.3,4.3,1.3,6.7c0,2.5-0.4,4.7-1.3,6.7
		c-0.8,2-2.1,3.6-3.6,4.8c-1.6,1.2-3.4,1.8-5.4,1.8C1015.8,212.9,1014,212.3,1012.4,211.1z M1021.2,207.8c0.9-0.8,1.7-1.9,2.2-3.4
		c0.5-1.4,0.8-3,0.8-4.8c0-1.8-0.3-3.4-0.8-4.8c-0.5-1.4-1.2-2.5-2.2-3.4c-0.9-0.8-2-1.2-3.3-1.2c-1.3,0-2.4,0.4-3.3,1.2
		c-0.9,0.8-1.7,1.9-2.2,3.4c-0.5,1.4-0.8,3-0.8,4.8c0,1.8,0.3,3.4,0.8,4.8c0.5,1.4,1.2,2.5,2.2,3.4c0.9,0.8,2,1.2,3.3,1.2
		C1019.1,209.1,1020.2,208.6,1021.2,207.8z"/>
	<path d="M1031.5,208.5c0.8-0.8,2.3-2.3,4.7-4.7c2.3-2.3,3.9-3.9,4.6-4.7c1-1.1,1.7-2,2.1-2.7c0.4-0.7,0.6-1.5,0.6-2.5
		c0-1-0.4-1.8-1.1-2.5s-1.7-1.1-3-1.1c-1.2,0-2.1,0.3-2.8,1s-1.2,1.5-1.4,2.3l-3.7-1.5c0.2-0.9,0.7-1.8,1.4-2.6s1.6-1.6,2.7-2.2
		c1.1-0.6,2.4-0.9,3.9-0.9c1.6,0,3,0.3,4.3,1c1.2,0.7,2.2,1.5,2.9,2.7c0.7,1.1,1,2.4,1,3.7c0,1.5-0.4,2.8-1.1,4.2
		c-0.8,1.3-1.7,2.6-2.9,3.7c-0.5,0.5-1.7,1.7-3.7,3.7l-3,3l0.1,0.1h11v3.7h-16.4V208.5z"/>
	<path d="M1056.5,212.1c-1.2-0.5-2.2-1.3-3.2-2.3c-0.9-1-1.5-2.3-1.9-3.8l3.7-1.4c0.3,1.3,0.9,2.4,1.8,3.2c0.9,0.8,1.9,1.2,3.2,1.2
		c1.4,0,2.5-0.4,3.4-1.3c0.9-0.9,1.4-2,1.4-3.4s-0.4-2.5-1.3-3.4c-0.9-0.9-2-1.3-3.5-1.3c-0.8,0-1.5,0.2-2.2,0.5
		c-0.7,0.3-1.3,0.8-1.7,1.4l-4-1.8l1.5-12.7h13.7v3.7h-10.3l-0.9,6.6l0.2,0c1.3-1,2.8-1.5,4.5-1.5c1.4,0,2.8,0.4,4,1.1s2.2,1.7,3,3
		c0.7,1.3,1.1,2.7,1.1,4.4s-0.4,3.1-1.1,4.4s-1.8,2.3-3.2,3.1c-1.3,0.7-2.8,1.1-4.5,1.1C1058.9,212.9,1057.7,212.6,1056.5,212.1z"/>
</g>
<path class="st5" d="M81.5,189c0,22.4-17.9,40.5-40,40.5s-40-18.1-40-40.5s17.9-40.5,40-40.5S81.5,166.6,81.5,189z"/>
<circle class="st6" cx="141" cy="189" r="40.5"/>
<path class="st7" d="M280.5,189c0,22.4-17.9,40.5-40,40.5s-40-18.1-40-40.5s17.9-40.5,40-40.5S280.5,166.6,280.5,189z"/>
<path class="st8" d="M0,51.1h282"/>
<path class="st8" d="M281.4,51.1c-29.9,0-71-22.7-71.6-50.8"/>
<path class="st8" d="M281.4,51.1c-30,0-71.1,22.7-71.6,50.9"/>
<path class="st9" d="M556,18l-66.7,213H440l66.7-213H556z"/>
<path class="st9" d="M462,18l-66.7,213H346l66.7-213H462z"/>
</svg>
