<?xml version="1.0" encoding="UTF-8"?>
<svg id="MISCELLANEOUS" xmlns="http://www.w3.org/2000/svg" viewBox="0 0 100 100">
  <defs>
    <style>
      .cls-1 {
        fill: #f9ab00;
      }
    </style>
  </defs>
  <path class="cls-1" d="M49.96,86.14c-9.92-8.13-18.49-17.21-23.86-28.93-2.51-5.48-3.89-11.22-3.78-17.28,.24-12.97,10.32-24.5,23.15-26.45,15.11-2.3,28.78,7.25,31.69,22.22,1.21,6.21,.2,12.24-1.91,18.1-2.71,7.54-7.13,14.06-12.35,20.06-3.54,4.07-7.43,7.78-11.59,11.19-.42,.34-.84,.68-1.35,1.08Zm.02-60.74c-8.49,0-15.37,6.91-15.36,15.4,.01,8.44,6.89,15.32,15.33,15.34,8.5,.01,15.4-6.87,15.41-15.36,0-8.49-6.89-15.39-15.38-15.38Z"/>
  <g>
    <path d="M16.18,42.19c-.05-17.5,11.39-31.48,27.29-34.61,18.3-3.6,36.2,8.42,39.71,26.71,1.5,7.81,.28,15.35-2.53,22.68-3.26,8.48-8.39,15.78-14.46,22.46-4.19,4.61-8.77,8.79-13.74,12.54-1.93,1.45-3,1.45-4.91-.02-10.03-7.7-18.63-16.69-24.83-27.8-4.02-7.21-6.45-14.88-6.52-21.96Zm33.78,43.95c.51-.41,.93-.74,1.35-1.08,4.17-3.41,8.06-7.12,11.59-11.19,5.22-6,9.64-12.52,12.35-20.06,2.11-5.87,3.12-11.9,1.91-18.1-2.91-14.97-16.58-24.52-31.69-22.22-12.83,1.95-22.91,13.48-23.15,26.45-.11,6.07,1.27,11.8,3.78,17.28,5.37,11.72,13.94,20.8,23.86,28.93Z"/>
    <path d="M49.98,25.4c8.5,0,15.39,6.89,15.38,15.38,0,8.49-6.91,15.37-15.41,15.36-8.44-.01-15.32-6.89-15.33-15.34-.01-8.5,6.87-15.4,15.36-15.4Zm-.02,24.59c5.08,.02,9.24-4.11,9.25-9.19,.01-5.08-4.11-9.24-9.18-9.25-5.08-.02-9.24,4.11-9.25,9.18-.02,5.08,4.11,9.24,9.18,9.26Z"/>
  </g>
</svg>