<?xml version="1.0" encoding="UTF-8"?>
<svg id="MISCELLANEOUS" xmlns="http://www.w3.org/2000/svg" viewBox="0 0 100 100">
  <defs>
    <style>
      .cls-1 {
        fill: #f9ab00;
      }
    </style>
  </defs>
  <g>
    <path class="cls-1" d="M15.94,40.78H84.07v.87c0,10.93,0,21.86,0,32.8,0,5.56-4.02,9.61-9.59,9.61-16.32,.01-32.64,.01-48.96,0-5.56,0-9.58-4.06-9.58-9.62,0-10.93,0-21.86,0-32.8,0-.26,0-.52,0-.87Zm15.49,27.83c-1.05,0-2.1-.02-3.15,0-1.78,.04-3.16,1.43-3.15,3.16,.01,1.69,1.37,3.1,3.11,3.13,2.1,.04,4.2,.04,6.3,0,1.75-.03,3.09-1.42,3.11-3.12,.02-1.73-1.36-3.13-3.14-3.17-1.02-.02-2.05,0-3.07,0Zm37.11,6.3c1.05,0,2.1,.02,3.15,0,1.79-.04,3.18-1.4,3.2-3.12,.02-1.75-1.39-3.16-3.22-3.17-2.02-.02-4.04-.02-6.06,0-1.84,.02-3.24,1.39-3.23,3.15,0,1.76,1.4,3.12,3.25,3.15,.97,.01,1.94,0,2.91,0Zm.14-24.91c-1.05,0-2.1-.02-3.15,0-1.78,.03-3.16,1.42-3.15,3.16,0,1.7,1.35,3.1,3.09,3.13,2.1,.04,4.2,.03,6.3,0,1.74-.03,3.1-1.42,3.12-3.12,.02-1.72-1.37-3.14-3.14-3.18-1.02-.02-2.05,0-3.07,0Zm-37.33,6.3c1.05,0,2.1,.02,3.15,0,1.79-.04,3.16-1.44,3.15-3.17-.01-1.74-1.39-3.11-3.18-3.13-2.05-.02-4.09-.02-6.14,0-1.78,.02-3.17,1.4-3.19,3.12-.02,1.71,1.37,3.13,3.15,3.17,1.02,.03,2.05,0,3.07,0Zm18.65,0c1,0,1.99,.01,2.99,0,1.86-.03,3.24-1.38,3.24-3.15,0-1.77-1.38-3.14-3.23-3.15-2.02-.02-4.04-.02-6.06,0-1.8,.02-3.18,1.37-3.21,3.1-.03,1.75,1.37,3.16,3.2,3.2,1.02,.02,2.05,0,3.07,0Zm.05,12.3c-1.08,0-2.15-.02-3.23,0-1.73,.04-3.09,1.43-3.1,3.13,0,1.66,1.32,3.1,3.01,3.14,2.15,.06,4.3,.05,6.45,0,1.74-.04,3.07-1.47,3.05-3.18-.02-1.72-1.36-3.07-3.11-3.11-1.02-.02-2.05,0-3.07,0Z"/>
    <path class="cls-1" d="M71.77,22.22c8.58-.96,13.21,4.32,12.22,12.18H16.06c-1.1-7.07,2.99-13.23,12.13-12.18,.01,.24,.04,.49,.04,.74,0,1.76-.01,3.52,0,5.28,.02,1.82,1.34,3.18,3.1,3.2,1.79,.02,3.17-1.33,3.2-3.19,.02-2,0-3.99,0-6.05h30.92c0,1.24,0,2.47,0,3.69,0,.81-.02,1.63,0,2.44,.06,1.79,1.44,3.12,3.21,3.1,1.73-.03,3.07-1.36,3.09-3.13,.02-2.02,0-4.04,0-6.09Z"/>
  </g>
  <g>
    <path d="M30.76,9.63h1.26c1.94,.69,2.69,2.1,2.53,4.1-.05,.67,0,1.35,0,2.07h30.92c0-.72,.05-1.4,0-2.07-.16-2,.59-3.41,2.53-4.09h1.26c1.9,.66,2.69,2.01,2.54,4-.06,.72,0,1.44,0,2.21,.99,0,1.85,0,2.72,0,7.43,.09,13.46,4.63,15.34,11.55,.22,.8,.36,1.62,.54,2.43v46.52c-.05,.12-.11,.24-.13,.36-1.16,8.07-7.6,13.66-15.75,13.66-16.32,0-32.63,0-48.95-.01-1.23,0-2.48-.11-3.67-.38-7.24-1.62-12.22-7.86-12.23-15.29-.01-14.4,0-28.8,0-43.2,0-.76,.07-1.52,.16-2.28,.81-6.88,7.06-12.83,13.97-13.27,1.46-.09,2.93-.01,4.47-.01,0-.89,.05-1.59,0-2.29-.16-1.98,.63-3.34,2.54-4Zm-14.83,31.14c0,.34,0,.61,0,.87,0,10.93,0,21.86,0,32.8,0,5.56,4.02,9.61,9.58,9.62,16.32,.01,32.64,.01,48.96,0,5.56,0,9.59-4.05,9.59-9.61,0-10.93,0-21.86,0-32.8v-.87H15.94Zm55.83-18.56c0,2.05,.02,4.07,0,6.09-.02,1.77-1.36,3.11-3.09,3.13-1.76,.03-3.15-1.3-3.21-3.1-.02-.81,0-1.63,0-2.44,0-1.23,0-2.45,0-3.69h-30.92c0,2.05,.02,4.05,0,6.05-.02,1.85-1.4,3.21-3.2,3.19-1.76-.02-3.08-1.38-3.1-3.2-.02-1.76,0-3.52,0-5.28,0-.25-.03-.5-.04-.74-9.14-1.05-13.23,5.11-12.13,12.18H83.98c1-7.87-3.64-13.15-12.22-12.18Z"/>
    <path d="M31.42,68.61c1.02,0,2.05-.02,3.07,0,1.78,.04,3.16,1.44,3.14,3.17-.02,1.7-1.36,3.09-3.11,3.12-2.1,.04-4.2,.04-6.3,0-1.74-.03-3.09-1.44-3.11-3.13-.01-1.73,1.37-3.12,3.15-3.16,1.05-.02,2.1,0,3.15,0Z"/>
    <path d="M68.53,74.92c-.97,0-1.94,.01-2.91,0-1.85-.03-3.24-1.39-3.25-3.15,0-1.76,1.39-3.14,3.23-3.15,2.02-.02,4.04-.02,6.06,0,1.83,.02,3.24,1.43,3.22,3.17-.02,1.73-1.41,3.09-3.2,3.12-1.05,.02-2.1,0-3.15,0Z"/>
    <path d="M68.67,50.01c1.02,0,2.05-.02,3.07,0,1.77,.04,3.16,1.46,3.14,3.18-.02,1.7-1.38,3.09-3.12,3.12-2.1,.03-4.2,.04-6.3,0-1.74-.03-3.09-1.43-3.09-3.13,0-1.73,1.37-3.12,3.15-3.16,1.05-.02,2.1,0,3.15,0Z"/>
    <path d="M31.34,56.31c-1.02,0-2.05,.02-3.07,0-1.78-.04-3.16-1.46-3.15-3.17,.02-1.72,1.41-3.11,3.19-3.12,2.05-.02,4.09-.02,6.14,0,1.79,.02,3.17,1.39,3.18,3.13,.01,1.73-1.36,3.12-3.15,3.17-1.05,.03-2.1,0-3.15,0Z"/>
    <path d="M49.99,56.31c-1.02,0-2.05,.02-3.07,0-1.83-.04-3.23-1.45-3.2-3.2,.03-1.73,1.41-3.08,3.21-3.1,2.02-.02,4.04-.02,6.06,0,1.85,.01,3.23,1.39,3.23,3.15,0,1.77-1.39,3.12-3.24,3.15-1,.01-1.99,0-2.99,0Z"/>
    <path d="M50.05,68.61c1.02,0,2.05-.02,3.07,0,1.75,.04,3.09,1.39,3.11,3.11,.02,1.7-1.31,3.14-3.05,3.18-2.15,.05-4.3,.05-6.45,0-1.69-.04-3.01-1.49-3.01-3.14,0-1.7,1.36-3.09,3.1-3.13,1.08-.03,2.15,0,3.23,0Z"/>
  </g>
</svg>